<svg xmlns="http://www.w3.org/2000/svg" xmlns:xlink="http://www.w3.org/1999/xlink" width="150" zoomAndPan="magnify" viewBox="0 0 112.5 56.249996" height="75" preserveAspectRatio="xMidYMid meet" version="1.0"><defs><g/><clipPath id="3066f7f0f8"><path d="M 1 30 L 10 30 L 10 44.84375 L 1 44.84375 Z M 1 30 " clip-rule="nonzero"/></clipPath><clipPath id="52d45f8998"><path d="M 10 24 L 19 24 L 19 44.84375 L 10 44.84375 Z M 10 24 " clip-rule="nonzero"/></clipPath><clipPath id="f9bb6088b5"><path d="M 20 20 L 28 20 L 28 44.84375 L 20 44.84375 Z M 20 20 " clip-rule="nonzero"/></clipPath><clipPath id="62fd68e8d6"><path d="M 0.492188 12 L 27 12 L 27 24 L 0.492188 24 Z M 0.492188 12 " clip-rule="nonzero"/></clipPath><clipPath id="ac2f46dbf5"><path d="M 21 10.644531 L 29.488281 10.644531 L 29.488281 19 L 21 19 Z M 21 10.644531 " clip-rule="nonzero"/></clipPath></defs><g clip-path="url(#3066f7f0f8)"><path fill="#ffffff" d="M 9.496094 44.039062 C 9.496094 44.480469 9.136719 44.835938 8.695312 44.835938 L 2.792969 44.835938 C 2.351562 44.835938 1.996094 44.480469 1.996094 44.039062 L 1.996094 30.828125 C 1.996094 30.386719 2.351562 30.027344 2.792969 30.027344 L 8.695312 30.027344 C 9.136719 30.027344 9.496094 30.386719 9.496094 30.828125 Z M 9.496094 44.039062 " fill-opacity="1" fill-rule="nonzero"/></g><g clip-path="url(#52d45f8998)"><path fill="#ffffff" d="M 18.496094 44.039062 C 18.496094 44.480469 18.140625 44.835938 17.699219 44.835938 L 11.796875 44.835938 C 11.355469 44.835938 10.996094 44.480469 10.996094 44.039062 L 10.996094 24.898438 C 10.996094 24.457031 11.355469 24.101562 11.796875 24.101562 L 17.699219 24.101562 C 18.140625 24.101562 18.496094 24.457031 18.496094 24.898438 Z M 18.496094 44.039062 " fill-opacity="1" fill-rule="nonzero"/></g><g clip-path="url(#f9bb6088b5)"><path fill="#ffffff" d="M 27.601562 44.039062 C 27.601562 44.480469 27.242188 44.835938 26.800781 44.835938 L 20.898438 44.835938 C 20.457031 44.835938 20.097656 44.480469 20.097656 44.039062 L 20.097656 21.40625 C 20.097656 20.96875 20.457031 20.609375 20.898438 20.609375 L 26.800781 20.609375 C 27.242188 20.609375 27.601562 20.96875 27.601562 21.40625 Z M 27.601562 44.039062 " fill-opacity="1" fill-rule="nonzero"/></g><g clip-path="url(#62fd68e8d6)"><path fill="#ffffff" d="M 1.996094 23.972656 C 1.554688 23.972656 1.125 23.75 0.882812 23.34375 C 0.511719 22.734375 0.707031 21.9375 1.320312 21.566406 L 12.386719 14.898438 C 12.742188 14.6875 13.175781 14.652344 13.554688 14.808594 C 13.9375 14.96875 14.222656 15.296875 14.324219 15.695312 L 15.308594 19.625 L 24.421875 12.972656 C 25 12.546875 25.8125 12.671875 26.238281 13.25 C 26.664062 13.828125 26.535156 14.640625 25.957031 15.0625 L 15.28125 22.855469 C 14.933594 23.109375 14.480469 23.175781 14.070312 23.027344 C 13.664062 22.882812 13.359375 22.542969 13.253906 22.121094 L 12.226562 18.027344 L 2.667969 23.785156 C 2.457031 23.910156 2.222656 23.972656 1.996094 23.972656 Z M 1.996094 23.972656 " fill-opacity="1" fill-rule="nonzero"/></g><g clip-path="url(#ac2f46dbf5)"><path fill="#ffffff" d="M 22.507812 11.886719 C 21.261719 12.128906 20.878906 13.148438 21.65625 14.148438 L 24.261719 17.492188 C 25.039062 18.496094 26.125 18.378906 26.671875 17.234375 L 28.917969 12.523438 C 29.464844 11.378906 28.890625 10.640625 27.644531 10.882812 Z M 22.507812 11.886719 " fill-opacity="1" fill-rule="nonzero"/></g><path fill="#0d3858" d="M 26.449219 23.75 C 26.449219 23.96875 26.40625 24.179688 26.324219 24.382812 C 26.242188 24.582031 26.121094 24.761719 25.964844 24.914062 C 25.8125 25.070312 25.632812 25.1875 25.429688 25.273438 C 25.230469 25.355469 25.019531 25.398438 24.800781 25.398438 C 24.582031 25.398438 24.371094 25.355469 24.167969 25.273438 C 23.964844 25.1875 23.785156 25.070312 23.632812 24.914062 C 23.476562 24.761719 23.359375 24.582031 23.273438 24.382812 C 23.191406 24.179688 23.148438 23.96875 23.148438 23.75 C 23.148438 23.535156 23.191406 23.324219 23.273438 23.121094 C 23.359375 22.921875 23.476562 22.742188 23.632812 22.585938 C 23.785156 22.433594 23.964844 22.316406 24.167969 22.230469 C 24.371094 22.148438 24.582031 22.105469 24.800781 22.105469 C 25.019531 22.105469 25.230469 22.148438 25.429688 22.230469 C 25.632812 22.316406 25.8125 22.433594 25.964844 22.585938 C 26.121094 22.742188 26.242188 22.921875 26.324219 23.121094 C 26.40625 23.324219 26.449219 23.535156 26.449219 23.75 Z M 26.449219 23.75 " fill-opacity="1" fill-rule="nonzero"/><g fill="#ffffff" fill-opacity="1"><g transform="translate(42.788376, 26.961445)"><g><path d="M 7.015625 -19.453125 C 7.992188 -19.453125 8.859375 -19.210938 9.609375 -18.734375 C 10.359375 -18.253906 10.941406 -17.578125 11.359375 -16.703125 C 11.773438 -15.835938 11.984375 -14.847656 11.984375 -13.734375 C 11.984375 -12.066406 11.546875 -10.722656 10.671875 -9.703125 C 9.796875 -8.691406 8.632812 -8.1875 7.1875 -8.1875 L 4.828125 -8.1875 C 4.734375 -8.1875 4.6875 -8.140625 4.6875 -8.046875 L 4.6875 -0.328125 C 4.6875 -0.234375 4.65625 -0.15625 4.59375 -0.09375 C 4.53125 -0.03125 4.453125 0 4.359375 0 L 1.796875 0 C 1.710938 0 1.632812 -0.03125 1.5625 -0.09375 C 1.5 -0.15625 1.46875 -0.234375 1.46875 -0.328125 L 1.46875 -19.125 C 1.46875 -19.21875 1.5 -19.296875 1.5625 -19.359375 C 1.632812 -19.421875 1.710938 -19.453125 1.796875 -19.453125 Z M 6.5 -10.71875 C 7.175781 -10.71875 7.722656 -10.976562 8.140625 -11.5 C 8.554688 -12.03125 8.765625 -12.75 8.765625 -13.65625 C 8.765625 -14.582031 8.554688 -15.316406 8.140625 -15.859375 C 7.722656 -16.398438 7.175781 -16.671875 6.5 -16.671875 L 4.828125 -16.671875 C 4.734375 -16.671875 4.6875 -16.625 4.6875 -16.53125 L 4.6875 -10.84375 C 4.6875 -10.757812 4.734375 -10.71875 4.828125 -10.71875 Z M 6.5 -10.71875 "/></g></g></g><g fill="#ffffff" fill-opacity="1"><g transform="translate(55.470398, 26.961445)"><g><path d="M 7.078125 -14.34375 C 7.578125 -14.34375 7.960938 -14.25 8.234375 -14.0625 C 8.390625 -13.976562 8.445312 -13.84375 8.40625 -13.65625 L 7.96875 -11.078125 C 7.945312 -10.847656 7.816406 -10.78125 7.578125 -10.875 C 7.316406 -10.945312 7.078125 -10.984375 6.859375 -10.984375 C 6.628906 -10.984375 6.425781 -10.957031 6.25 -10.90625 C 5.726562 -10.832031 5.304688 -10.539062 4.984375 -10.03125 C 4.660156 -9.519531 4.5 -8.914062 4.5 -8.21875 L 4.5 -0.359375 C 4.5 -0.265625 4.460938 -0.1875 4.390625 -0.125 C 4.328125 -0.0625 4.25 -0.03125 4.15625 -0.03125 L 1.609375 -0.03125 C 1.515625 -0.03125 1.4375 -0.0625 1.375 -0.125 C 1.3125 -0.1875 1.28125 -0.265625 1.28125 -0.359375 L 1.28125 -13.84375 C 1.28125 -13.9375 1.3125 -14.015625 1.375 -14.078125 C 1.4375 -14.148438 1.515625 -14.1875 1.609375 -14.1875 L 4.15625 -14.1875 C 4.25 -14.1875 4.328125 -14.148438 4.390625 -14.078125 C 4.460938 -14.015625 4.5 -13.9375 4.5 -13.84375 L 4.5 -12.578125 C 4.5 -12.492188 4.515625 -12.445312 4.546875 -12.4375 C 4.585938 -12.4375 4.617188 -12.472656 4.640625 -12.546875 C 5.140625 -13.742188 5.953125 -14.34375 7.078125 -14.34375 Z M 7.078125 -14.34375 "/></g></g></g><g fill="#ffffff" fill-opacity="1"><g transform="translate(64.15634, 26.961445)"><g><path d="M 6 0.21875 C 4.457031 0.21875 3.242188 -0.1875 2.359375 -1 C 1.484375 -1.8125 1.046875 -2.910156 1.046875 -4.296875 L 1.046875 -9.875 C 1.046875 -11.25 1.488281 -12.347656 2.375 -13.171875 C 3.269531 -13.992188 4.476562 -14.40625 6 -14.40625 C 7.53125 -14.40625 8.738281 -13.992188 9.625 -13.171875 C 10.519531 -12.347656 10.96875 -11.25 10.96875 -9.875 L 10.96875 -4.296875 C 10.96875 -2.910156 10.523438 -1.8125 9.640625 -1 C 8.765625 -0.1875 7.550781 0.21875 6 0.21875 Z M 6 -2.578125 C 6.507812 -2.578125 6.925781 -2.753906 7.25 -3.109375 C 7.582031 -3.472656 7.75 -3.953125 7.75 -4.546875 L 7.75 -9.65625 C 7.75 -10.226562 7.582031 -10.695312 7.25 -11.0625 C 6.925781 -11.4375 6.507812 -11.625 6 -11.625 C 5.476562 -11.625 5.0625 -11.441406 4.75 -11.078125 C 4.4375 -10.722656 4.28125 -10.25 4.28125 -9.65625 L 4.28125 -4.546875 C 4.28125 -3.953125 4.4375 -3.472656 4.75 -3.109375 C 5.0625 -2.753906 5.476562 -2.578125 6 -2.578125 Z M 6 -2.578125 "/></g></g></g><g fill="#ffffff" fill-opacity="1"><g transform="translate(76.144604, 26.961445)"><g><path d="M 7.015625 -14.1875 C 7.109375 -14.1875 7.1875 -14.148438 7.25 -14.078125 C 7.320312 -14.015625 7.359375 -13.9375 7.359375 -13.84375 L 7.359375 -12.203125 C 7.359375 -12.117188 7.320312 -12.039062 7.25 -11.96875 C 7.1875 -11.90625 7.109375 -11.875 7.015625 -11.875 L 5.296875 -11.875 C 5.203125 -11.875 5.15625 -11.828125 5.15625 -11.734375 L 5.15625 -0.328125 C 5.15625 -0.234375 5.125 -0.15625 5.0625 -0.09375 C 5 -0.03125 4.921875 0 4.828125 0 L 2.296875 0 C 2.210938 0 2.132812 -0.03125 2.0625 -0.09375 C 2 -0.15625 1.96875 -0.234375 1.96875 -0.328125 L 1.96875 -11.734375 C 1.96875 -11.828125 1.921875 -11.875 1.828125 -11.875 L 0.9375 -11.875 C 0.851562 -11.875 0.773438 -11.90625 0.703125 -11.96875 C 0.640625 -12.039062 0.609375 -12.117188 0.609375 -12.203125 L 0.609375 -13.84375 C 0.609375 -13.9375 0.640625 -14.015625 0.703125 -14.078125 C 0.773438 -14.148438 0.851562 -14.1875 0.9375 -14.1875 L 1.828125 -14.1875 C 1.921875 -14.1875 1.96875 -14.226562 1.96875 -14.3125 L 1.96875 -15.015625 C 1.96875 -16.679688 2.347656 -17.851562 3.109375 -18.53125 C 3.867188 -19.21875 5.082031 -19.550781 6.75 -19.53125 L 6.96875 -19.53125 C 7.0625 -19.53125 7.140625 -19.5 7.203125 -19.4375 C 7.265625 -19.375 7.296875 -19.296875 7.296875 -19.203125 L 7.25 -17.3125 C 7.25 -17.21875 7.210938 -17.140625 7.140625 -17.078125 C 7.078125 -17.015625 7 -16.984375 6.90625 -16.984375 L 6.765625 -16.984375 C 6.210938 -16.960938 5.804688 -16.78125 5.546875 -16.4375 C 5.285156 -16.09375 5.15625 -15.570312 5.15625 -14.875 L 5.15625 -14.3125 C 5.15625 -14.226562 5.203125 -14.1875 5.296875 -14.1875 Z M 7.015625 -14.1875 "/></g></g></g><g fill="#ffffff" fill-opacity="1"><g transform="translate(84.220028, 26.961445)"><g><path d="M 2.96875 -16.125 C 2.394531 -16.125 1.921875 -16.304688 1.546875 -16.671875 C 1.179688 -17.046875 1 -17.519531 1 -18.09375 C 1 -18.664062 1.179688 -19.132812 1.546875 -19.5 C 1.921875 -19.875 2.394531 -20.0625 2.96875 -20.0625 C 3.539062 -20.0625 4.003906 -19.875 4.359375 -19.5 C 4.722656 -19.132812 4.90625 -18.664062 4.90625 -18.09375 C 4.90625 -17.519531 4.71875 -17.046875 4.34375 -16.671875 C 3.976562 -16.304688 3.519531 -16.125 2.96875 -16.125 Z M 1.71875 0 C 1.625 0 1.546875 -0.03125 1.484375 -0.09375 C 1.421875 -0.15625 1.390625 -0.234375 1.390625 -0.328125 L 1.390625 -13.84375 C 1.390625 -13.9375 1.421875 -14.015625 1.484375 -14.078125 C 1.546875 -14.148438 1.625 -14.1875 1.71875 -14.1875 L 4.28125 -14.1875 C 4.363281 -14.1875 4.4375 -14.148438 4.5 -14.078125 C 4.570312 -14.015625 4.609375 -13.9375 4.609375 -13.84375 L 4.609375 -0.328125 C 4.609375 -0.234375 4.570312 -0.15625 4.5 -0.09375 C 4.4375 -0.03125 4.363281 0 4.28125 0 Z M 1.71875 0 "/></g></g></g><g fill="#ffffff" fill-opacity="1"><g transform="translate(90.186407, 26.961445)"><g><path d="M 7.21875 -12.234375 C 7.21875 -12.140625 7.179688 -12.0625 7.109375 -12 C 7.046875 -11.9375 6.96875 -11.90625 6.875 -11.90625 L 5.15625 -11.90625 C 5.0625 -11.90625 5.015625 -11.859375 5.015625 -11.765625 L 5.015625 -4.5 C 5.015625 -3.851562 5.132812 -3.40625 5.375 -3.15625 C 5.625 -2.90625 5.988281 -2.785156 6.46875 -2.796875 L 6.65625 -2.796875 C 6.75 -2.796875 6.828125 -2.765625 6.890625 -2.703125 C 6.960938 -2.640625 7 -2.5625 7 -2.46875 L 7 -0.328125 C 7 -0.234375 6.960938 -0.15625 6.890625 -0.09375 C 6.828125 -0.03125 6.75 0 6.65625 0 L 5.71875 0 C 4.457031 0 3.507812 -0.226562 2.875 -0.6875 C 2.238281 -1.15625 1.921875 -2.023438 1.921875 -3.296875 L 1.921875 -11.765625 C 1.921875 -11.859375 1.875 -11.90625 1.78125 -11.90625 L 0.8125 -11.90625 C 0.71875 -11.90625 0.632812 -11.9375 0.5625 -12 C 0.5 -12.0625 0.46875 -12.140625 0.46875 -12.234375 L 0.46875 -13.84375 C 0.46875 -13.9375 0.5 -14.015625 0.5625 -14.078125 C 0.632812 -14.148438 0.71875 -14.1875 0.8125 -14.1875 L 1.78125 -14.1875 C 1.875 -14.1875 1.921875 -14.226562 1.921875 -14.3125 L 1.921875 -17.375 C 1.921875 -17.46875 1.953125 -17.546875 2.015625 -17.609375 C 2.078125 -17.671875 2.15625 -17.703125 2.25 -17.703125 L 4.6875 -17.703125 C 4.78125 -17.703125 4.859375 -17.671875 4.921875 -17.609375 C 4.984375 -17.546875 5.015625 -17.46875 5.015625 -17.375 L 5.015625 -14.3125 C 5.015625 -14.226562 5.0625 -14.1875 5.15625 -14.1875 L 6.875 -14.1875 C 6.96875 -14.1875 7.046875 -14.148438 7.109375 -14.078125 C 7.179688 -14.015625 7.21875 -13.9375 7.21875 -13.84375 Z M 7.21875 -12.234375 "/></g></g></g><g fill="#ffffff" fill-opacity="1"><g transform="translate(40.592037, 44.03532)"><g><path d="M 9.640625 -12.03125 L 9.640625 -10.03125 L 6.171875 -10.03125 L 6.171875 0 L 3.796875 0 L 3.796875 -10.03125 L 0.328125 -10.03125 L 0.328125 -12.03125 Z M 9.640625 -12.03125 "/></g></g></g><g fill="#ffffff" fill-opacity="1"><g transform="translate(50.559749, 44.03532)"><g><path d="M 1.3125 0 L 1.3125 -9.078125 L 3.515625 -9.078125 L 3.515625 -7.71875 L 3.6875 -7.6875 C 3.90625 -8.195312 4.191406 -8.566406 4.546875 -8.796875 C 4.910156 -9.035156 5.347656 -9.15625 5.859375 -9.15625 C 6.367188 -9.15625 6.757812 -9.066406 7.03125 -8.890625 L 6.640625 -6.921875 L 6.46875 -6.890625 C 6.320312 -6.953125 6.179688 -6.992188 6.046875 -7.015625 C 5.910156 -7.046875 5.742188 -7.0625 5.546875 -7.0625 C 4.910156 -7.0625 4.421875 -6.835938 4.078125 -6.390625 C 3.742188 -5.941406 3.578125 -5.226562 3.578125 -4.25 L 3.578125 0 Z M 1.3125 0 "/></g></g></g><g fill="#ffffff" fill-opacity="1"><g transform="translate(57.673669, 44.03532)"><g><path d="M 3.53125 0.171875 C 2.957031 0.171875 2.453125 0.0664062 2.015625 -0.140625 C 1.585938 -0.359375 1.257812 -0.671875 1.03125 -1.078125 C 0.800781 -1.492188 0.6875 -1.992188 0.6875 -2.578125 C 0.6875 -3.117188 0.800781 -3.570312 1.03125 -3.9375 C 1.257812 -4.300781 1.613281 -4.597656 2.09375 -4.828125 C 2.582031 -5.066406 3.21875 -5.25 4 -5.375 C 4.539062 -5.457031 4.953125 -5.550781 5.234375 -5.65625 C 5.515625 -5.757812 5.703125 -5.875 5.796875 -6 C 5.898438 -6.132812 5.953125 -6.304688 5.953125 -6.515625 C 5.953125 -6.804688 5.847656 -7.023438 5.640625 -7.171875 C 5.441406 -7.328125 5.109375 -7.40625 4.640625 -7.40625 C 4.128906 -7.40625 3.644531 -7.289062 3.1875 -7.0625 C 2.738281 -6.84375 2.347656 -6.550781 2.015625 -6.1875 L 1.84375 -6.1875 L 0.890625 -7.625 C 1.359375 -8.132812 1.921875 -8.53125 2.578125 -8.8125 C 3.242188 -9.101562 3.96875 -9.25 4.75 -9.25 C 5.957031 -9.25 6.828125 -8.992188 7.359375 -8.484375 C 7.898438 -7.972656 8.171875 -7.25 8.171875 -6.3125 L 8.171875 -2.375 C 8.171875 -1.96875 8.347656 -1.765625 8.703125 -1.765625 C 8.835938 -1.765625 8.972656 -1.785156 9.109375 -1.828125 L 9.21875 -1.796875 L 9.390625 -0.21875 C 9.253906 -0.132812 9.070312 -0.0664062 8.84375 -0.015625 C 8.625 0.0351562 8.382812 0.0625 8.125 0.0625 C 7.570312 0.0625 7.144531 -0.0390625 6.84375 -0.25 C 6.539062 -0.457031 6.320312 -0.78125 6.1875 -1.21875 L 6.015625 -1.234375 C 5.578125 -0.296875 4.75 0.171875 3.53125 0.171875 Z M 4.265625 -1.53125 C 4.785156 -1.53125 5.203125 -1.707031 5.515625 -2.0625 C 5.835938 -2.414062 6 -2.90625 6 -3.53125 L 6 -4.453125 L 5.84375 -4.484375 C 5.707031 -4.378906 5.523438 -4.289062 5.296875 -4.21875 C 5.078125 -4.144531 4.757812 -4.070312 4.34375 -4 C 3.851562 -3.914062 3.5 -3.769531 3.28125 -3.5625 C 3.0625 -3.363281 2.953125 -3.082031 2.953125 -2.71875 C 2.953125 -2.332031 3.066406 -2.035156 3.296875 -1.828125 C 3.523438 -1.628906 3.847656 -1.53125 4.265625 -1.53125 Z M 4.265625 -1.53125 "/></g></g></g><g fill="#ffffff" fill-opacity="1"><g transform="translate(67.238396, 44.03532)"><g><path d="M 5.28125 0.171875 C 4.40625 0.171875 3.628906 -0.0078125 2.953125 -0.375 C 2.285156 -0.738281 1.757812 -1.273438 1.375 -1.984375 C 1 -2.691406 0.8125 -3.539062 0.8125 -4.53125 C 0.8125 -5.53125 1 -6.382812 1.375 -7.09375 C 1.757812 -7.800781 2.285156 -8.335938 2.953125 -8.703125 C 3.617188 -9.066406 4.382812 -9.25 5.25 -9.25 C 7.164062 -9.25 8.390625 -8.550781 8.921875 -7.15625 L 7.359375 -6.046875 L 7.1875 -6.046875 C 7 -6.472656 6.753906 -6.789062 6.453125 -7 C 6.160156 -7.207031 5.757812 -7.3125 5.25 -7.3125 C 4.59375 -7.3125 4.078125 -7.082031 3.703125 -6.625 C 3.335938 -6.175781 3.15625 -5.476562 3.15625 -4.53125 C 3.15625 -3.601562 3.34375 -2.910156 3.71875 -2.453125 C 4.09375 -1.992188 4.613281 -1.765625 5.28125 -1.765625 C 5.78125 -1.765625 6.203125 -1.894531 6.546875 -2.15625 C 6.890625 -2.425781 7.132812 -2.8125 7.28125 -3.3125 L 7.453125 -3.328125 L 9.078125 -2.4375 C 8.835938 -1.664062 8.40625 -1.035156 7.78125 -0.546875 C 7.164062 -0.0664062 6.332031 0.171875 5.28125 0.171875 Z M 5.28125 0.171875 "/></g></g></g><g fill="#ffffff" fill-opacity="1"><g transform="translate(76.589295, 44.03532)"><g><path d="M 1.3125 0 L 1.3125 -12.71875 L 3.578125 -12.71875 L 3.578125 -5.65625 L 3.8125 -5.65625 L 6.4375 -9.078125 L 8.75 -9.078125 L 8.75 -8.875 L 5.65625 -4.90625 L 9.09375 -0.203125 L 9.09375 0 L 6.6875 0 L 3.8125 -3.828125 L 3.578125 -3.828125 L 3.578125 0 Z M 1.3125 0 "/></g></g></g><g fill="#ffffff" fill-opacity="1"><g transform="translate(85.693467, 44.03532)"><g><path d="M 8.96875 -4.015625 L 3.140625 -4.015625 C 3.203125 -3.234375 3.425781 -2.660156 3.8125 -2.296875 C 4.195312 -1.941406 4.71875 -1.765625 5.375 -1.765625 C 5.894531 -1.765625 6.316406 -1.859375 6.640625 -2.046875 C 6.960938 -2.242188 7.222656 -2.539062 7.421875 -2.9375 L 7.59375 -2.9375 L 9.109375 -1.96875 C 8.816406 -1.332031 8.367188 -0.816406 7.765625 -0.421875 C 7.171875 -0.0234375 6.375 0.171875 5.375 0.171875 C 4.4375 0.171875 3.625 -0.00390625 2.9375 -0.359375 C 2.257812 -0.710938 1.734375 -1.242188 1.359375 -1.953125 C 0.992188 -2.660156 0.8125 -3.519531 0.8125 -4.53125 C 0.8125 -5.5625 1.003906 -6.429688 1.390625 -7.140625 C 1.785156 -7.847656 2.3125 -8.375 2.96875 -8.71875 C 3.632812 -9.070312 4.382812 -9.25 5.21875 -9.25 C 6.5 -9.25 7.476562 -8.90625 8.15625 -8.21875 C 8.84375 -7.539062 9.1875 -6.546875 9.1875 -5.234375 C 9.1875 -4.753906 9.171875 -4.382812 9.140625 -4.125 Z M 7 -5.5 C 6.976562 -6.1875 6.816406 -6.6875 6.515625 -7 C 6.222656 -7.3125 5.789062 -7.46875 5.21875 -7.46875 C 4.0625 -7.46875 3.382812 -6.8125 3.1875 -5.5 Z M 7 -5.5 "/></g></g></g><g fill="#ffffff" fill-opacity="1"><g transform="translate(95.554265, 44.03532)"><g><path d="M 1.3125 0 L 1.3125 -9.078125 L 3.515625 -9.078125 L 3.515625 -7.71875 L 3.6875 -7.6875 C 3.90625 -8.195312 4.191406 -8.566406 4.546875 -8.796875 C 4.910156 -9.035156 5.347656 -9.15625 5.859375 -9.15625 C 6.367188 -9.15625 6.757812 -9.066406 7.03125 -8.890625 L 6.640625 -6.921875 L 6.46875 -6.890625 C 6.320312 -6.953125 6.179688 -6.992188 6.046875 -7.015625 C 5.910156 -7.046875 5.742188 -7.0625 5.546875 -7.0625 C 4.910156 -7.0625 4.421875 -6.835938 4.078125 -6.390625 C 3.742188 -5.941406 3.578125 -5.226562 3.578125 -4.25 L 3.578125 0 Z M 1.3125 0 "/></g></g></g></svg>